<svg id="svg" version="1.1" xmlns="http://www.w3.org/2000/svg" xmlns:xlink="http://www.w3.org/1999/xlink" width="400" height="381.0147299509002" viewBox="0, 0, 400,381.0147299509002"><g id="svgg"><path id="path0" d="M40.610 1.416 C 40.191 1.517,39.684 1.754,39.485 1.944 C 39.270 2.148,98.906 2.288,186.768 2.288 C 269.461 2.288,334.414 2.143,334.414 1.958 C 334.414 1.205,43.716 0.669,40.610 1.416 M382.249 15.795 C 381.862 17.861,382.666 18.425,385.509 18.080 C 388.121 17.764,388.255 17.654,386.407 17.341 C 383.873 16.912,383.549 16.736,383.032 15.507 L 382.528 14.308 382.249 15.795 M15.687 16.428 C 15.192 16.830,14.473 17.159,14.089 17.159 C 13.705 17.159,13.285 17.331,13.155 17.541 C 13.010 17.776,13.664 17.922,14.861 17.922 C 16.883 17.922,17.541 17.388,16.905 16.261 C 16.633 15.778,16.458 15.802,15.687 16.428 M397.977 24.648 C 397.831 24.793,397.712 25.496,397.712 26.209 C 397.712 26.922,397.540 27.826,397.330 28.219 C 397.074 28.697,397.074 29.012,397.330 29.170 C 397.861 29.498,397.861 351.817,397.330 352.146 C 397.074 352.303,397.074 352.619,397.330 353.096 C 397.540 353.489,397.712 354.412,397.712 355.148 C 397.712 356.833,398.356 357.286,398.750 355.878 C 399.775 352.206,399.009 23.616,397.977 24.648 M0.000 190.635 C 0.000 292.583,0.137 356.570,0.355 356.704 C 0.943 357.068,2.121 353.797,1.860 352.526 C 1.591 351.219,1.585 29.949,1.854 29.469 C 2.035 29.145,2.040 28.430,1.865 27.881 C 1.690 27.332,1.453 26.411,1.338 25.834 C 1.223 25.256,0.876 24.786,0.565 24.786 C 0.067 24.786,0.000 44.416,0.000 190.635 M13.155 363.775 C 13.023 363.989,13.325 364.156,13.844 364.156 C 14.352 364.156,15.208 364.502,15.746 364.925 L 16.723 365.694 16.966 364.928 C 17.402 363.553,13.940 362.505,13.155 363.775 M382.332 363.648 C 382.008 363.972,382.004 365.427,382.325 366.262 C 382.523 366.778,382.668 366.675,383.060 365.744 C 383.443 364.831,383.860 364.527,385.005 364.321 C 387.681 363.840,387.724 363.417,385.097 363.405 C 383.716 363.399,382.472 363.508,382.332 363.648 M39.657 379.361 C 39.657 380.125,48.145 380.171,186.797 380.167 C 325.516 380.163,334.414 380.115,334.414 379.359 C 334.414 379.172,270.243 379.028,187.035 379.028 C 103.073 379.028,39.657 379.171,39.657 379.361 " stroke="none" fill="#bdab99" fill-rule="evenodd"></path><path id="path1" d="M14.109 0.931 C 14.109 1.467,14.244 1.907,14.409 1.907 C 14.842 1.907,14.890 0.438,14.466 0.176 C 14.269 0.054,14.109 0.394,14.109 0.931 M384.516 0.603 C 384.643 0.935,384.747 1.450,384.747 1.747 C 384.747 2.061,385.124 2.288,385.644 2.288 C 386.622 2.288,388.453 2.824,390.334 3.660 C 390.995 3.954,391.696 4.194,391.893 4.194 C 392.089 4.194,392.999 4.955,393.915 5.884 C 394.831 6.814,395.744 7.474,395.943 7.351 C 396.142 7.228,396.194 7.306,396.060 7.524 C 395.755 8.016,396.517 10.296,396.987 10.296 C 397.176 10.296,397.331 10.789,397.331 11.393 C 397.331 11.996,397.588 12.704,397.903 12.965 C 399.140 13.992,398.409 10.710,396.657 7.373 C 395.182 4.563,390.910 1.632,387.743 1.257 C 386.543 1.115,385.891 0.855,385.891 0.519 C 385.891 0.233,385.530 0.000,385.088 0.000 C 384.512 0.000,384.350 0.171,384.516 0.603 M11.503 1.859 C 10.593 2.436,11.902 2.596,12.965 2.037 L 13.918 1.537 12.965 1.537 C 12.440 1.537,11.783 1.682,11.503 1.859 M7.032 3.361 C 3.761 5.526,1.144 9.490,1.144 12.279 C 1.144 13.361,1.430 13.026,1.679 11.652 C 1.789 11.045,2.032 10.448,2.218 10.326 C 2.405 10.205,2.967 9.204,3.469 8.103 C 3.970 7.002,4.509 6.101,4.666 6.101 C 5.196 6.101,6.839 4.464,6.638 4.137 C 6.527 3.959,6.662 3.791,6.937 3.764 C 7.211 3.738,7.836 3.675,8.325 3.624 C 8.814 3.574,9.494 3.253,9.836 2.910 C 10.908 1.838,8.827 2.173,7.032 3.361 M20.857 6.344 C 20.723 6.478,20.720 9.528,20.850 13.123 C 21.160 21.688,21.789 21.059,13.001 20.961 C 9.311 20.920,6.120 20.905,5.910 20.929 C 5.043 21.027,5.424 360.353,6.292 360.549 C 6.711 360.645,10.020 360.680,13.645 360.628 C 21.750 360.512,21.086 359.808,20.819 368.239 C 20.697 372.081,20.757 374.891,20.963 375.018 C 21.216 375.175,252.272 375.303,377.026 375.216 L 378.646 375.214 378.646 368.148 C 378.646 359.727,377.691 360.615,386.800 360.569 L 393.708 360.534 393.804 190.753 C 393.895 29.247,393.867 20.970,393.232 20.932 C 392.865 20.910,389.794 20.925,386.407 20.966 C 377.966 21.069,378.646 21.755,378.646 13.142 L 378.646 6.101 199.873 6.101 C 101.548 6.101,20.990 6.210,20.857 6.344 M10.200 7.261 C 9.414 7.682,8.770 8.178,8.770 8.364 C 8.770 8.972,13.455 9.036,14.412 8.441 C 16.914 6.887,12.968 5.782,10.200 7.261 M384.366 7.395 C 384.366 8.541,384.969 8.770,387.973 8.770 C 390.937 8.770,391.305 9.145,391.226 12.084 C 391.144 15.188,391.141 15.179,392.017 15.647 C 394.576 17.017,394.393 12.664,391.762 9.590 C 389.266 6.674,384.366 5.220,384.366 7.395 M6.236 11.645 C 5.108 14.108,5.254 14.975,6.766 14.802 C 7.784 14.684,7.820 14.600,7.930 12.107 C 8.070 8.910,7.553 8.769,6.236 11.645 M13.805 12.422 C 13.854 13.591,14.047 14.642,14.234 14.758 C 15.123 15.308,15.605 12.429,14.858 11.033 C 14.140 9.691,13.714 10.253,13.805 12.422 M384.443 13.060 L 384.557 15.443 387.131 15.556 C 388.739 15.626,389.704 15.519,389.704 15.270 C 389.704 15.051,389.093 14.871,388.345 14.871 C 386.124 14.871,385.510 14.331,385.510 12.379 C 385.510 11.097,385.364 10.677,384.920 10.677 C 384.438 10.677,384.351 11.114,384.443 13.060 M398.284 14.490 C 397.932 15.060,398.422 15.634,399.260 15.634 C 399.746 15.634,400.000 15.372,400.000 14.871 C 400.000 14.063,398.724 13.779,398.284 14.490 M2.669 25.548 C 2.669 26.387,2.841 27.073,3.051 27.073 C 3.260 27.073,3.432 26.387,3.432 25.548 C 3.432 24.709,3.260 24.023,3.051 24.023 C 2.841 24.023,2.669 24.709,2.669 25.548 M396.291 25.548 C 396.291 26.492,396.365 26.878,396.456 26.406 C 396.547 25.934,396.547 25.162,396.456 24.690 C 396.365 24.218,396.291 24.604,396.291 25.548 M2.669 190.658 C 2.669 297.172,2.797 350.810,3.051 350.810 C 3.304 350.810,3.432 297.172,3.432 190.658 C 3.432 84.144,3.304 30.505,3.051 30.505 C 2.797 30.505,2.669 84.144,2.669 190.658 M396.187 190.848 C 396.187 279.107,396.273 351.232,396.379 351.126 C 396.632 350.874,396.633 30.824,396.381 30.572 C 396.274 30.465,396.187 102.590,396.187 190.848 M2.669 355.981 C 2.669 357.042,2.818 357.627,3.051 357.483 C 3.260 357.354,3.432 356.571,3.432 355.745 C 3.432 354.918,3.260 354.242,3.051 354.242 C 2.841 354.242,2.669 355.024,2.669 355.981 M396.291 355.767 C 396.291 356.711,396.365 357.097,396.456 356.625 C 396.547 356.153,396.547 355.381,396.456 354.909 C 396.365 354.438,396.291 354.824,396.291 355.767 M384.620 365.936 C 384.063 366.493,384.343 370.639,384.938 370.639 C 385.361 370.639,385.510 370.195,385.510 368.936 C 385.510 366.984,386.124 366.444,388.345 366.444 C 389.093 366.444,389.704 366.273,389.704 366.063 C 389.704 365.642,385.031 365.525,384.620 365.936 M391.426 366.328 C 391.270 366.707,391.175 368.114,391.214 369.455 C 391.300 372.351,391.116 372.531,388.059 372.539 C 384.996 372.548,382.861 374.174,384.892 374.953 C 388.137 376.198,394.516 370.168,393.823 366.511 C 393.649 365.594,391.786 365.452,391.426 366.328 M398.535 366.181 C 398.017 366.805,398.328 367.207,399.329 367.207 C 399.803 367.207,400.013 366.985,399.933 366.571 C 399.769 365.725,399.074 365.531,398.535 366.181 M5.475 367.019 C 5.215 367.698,6.680 371.155,7.524 371.856 C 7.956 372.214,8.024 371.810,7.930 369.461 C 7.814 366.554,6.250 364.999,5.475 367.019 M14.015 366.730 C 13.673 367.437,13.723 371.020,14.076 371.020 C 14.979 371.020,15.579 368.500,15.021 367.047 C 14.778 366.413,14.250 366.246,14.015 366.730 M1.183 369.005 C 1.016 372.608,6.995 379.790,9.395 378.870 C 10.203 378.559,9.655 377.884,8.595 377.884 C 8.085 377.884,7.136 377.317,6.381 376.562 C 5.654 375.835,4.943 375.355,4.802 375.497 C 4.661 375.638,4.447 375.375,4.326 374.912 C 4.205 374.449,3.944 374.071,3.746 374.071 C 3.549 374.071,3.475 373.928,3.583 373.753 C 3.691 373.578,3.330 372.773,2.780 371.965 C 2.230 371.156,1.655 369.969,1.501 369.327 C 1.290 368.446,1.212 368.367,1.183 369.005 M397.585 368.605 C 397.445 368.745,397.331 369.345,397.331 369.940 C 397.331 370.534,397.173 371.020,396.980 371.020 C 396.643 371.020,395.964 373.191,396.114 373.785 C 396.154 373.942,395.972 374.073,395.710 374.077 C 395.448 374.080,394.560 374.767,393.737 375.602 C 392.913 376.438,392.081 377.121,391.888 377.121 C 391.694 377.121,390.995 377.361,390.334 377.655 C 388.453 378.492,386.622 379.028,385.644 379.028 C 385.124 379.028,384.747 379.255,384.747 379.568 C 384.747 379.866,384.643 380.381,384.516 380.712 C 384.350 381.145,384.512 381.316,385.088 381.316 C 385.548 381.316,385.891 381.071,385.891 380.744 C 385.891 380.337,386.306 380.171,387.321 380.168 C 390.296 380.160,395.063 376.979,396.661 373.934 C 398.546 370.345,399.112 367.078,397.585 368.605 M11.249 372.446 C 8.647 372.644,8.377 373.092,10.276 374.060 C 11.980 374.930,14.881 375.013,15.148 374.200 C 15.291 373.764,13.786 372.099,13.369 372.233 C 13.252 372.270,12.297 372.367,11.249 372.446 M11.249 379.409 C 11.378 379.619,11.946 379.788,12.511 379.784 C 13.313 379.780,13.412 379.698,12.965 379.409 C 12.211 378.922,10.948 378.922,11.249 379.409 M14.109 380.575 C 14.109 381.007,14.280 381.254,14.490 381.125 C 14.700 380.995,14.871 380.642,14.871 380.340 C 14.871 380.038,14.700 379.790,14.490 379.790 C 14.280 379.790,14.109 380.144,14.109 380.575 " stroke="none" fill="#040404" fill-rule="evenodd"></path><path id="path2" d="M15.634 1.484 C 15.634 3.121,15.240 3.432,13.171 3.432 C 8.583 3.432,2.304 9.119,2.283 13.294 C 2.275 14.714,1.881 16.015,1.458 16.015 C 1.261 16.015,1.215 15.827,1.357 15.597 C 1.518 15.338,1.345 15.231,0.903 15.315 C -0.148 15.516,-0.241 17.007,0.781 17.274 C 2.103 17.620,3.533 16.785,3.223 15.847 C 2.492 13.632,2.595 12.405,3.592 11.468 C 4.133 10.960,4.576 10.353,4.576 10.121 C 4.576 8.135,10.632 4.337,14.109 4.142 L 16.587 4.004 16.707 5.243 C 16.843 6.660,16.727 6.716,15.424 5.863 C 13.436 4.560,8.054 6.516,6.063 9.264 C 3.003 13.489,3.297 17.419,6.643 17.017 C 7.708 16.889,9.695 16.758,11.058 16.725 L 13.537 16.666 11.249 16.350 C 8.445 15.963,8.514 15.965,6.802 16.244 C 2.579 16.934,5.144 9.330,9.975 6.840 C 11.888 5.854,14.335 5.497,15.060 6.099 C 15.801 6.714,15.802 8.348,15.062 8.632 C 14.337 8.911,14.327 9.686,15.042 10.279 C 15.346 10.531,15.658 11.539,15.736 12.518 L 15.878 14.299 15.947 12.423 C 15.993 11.143,15.817 10.327,15.391 9.857 C 14.813 9.217,14.815 9.149,15.430 8.913 C 16.241 8.602,16.764 9.336,16.772 10.794 C 16.775 11.383,16.975 13.060,17.216 14.520 C 17.534 16.441,17.541 17.427,17.242 18.083 C 16.896 18.842,16.940 19.019,17.512 19.169 C 18.435 19.410,19.450 18.793,19.435 17.998 C 19.425 17.400,19.394 17.401,19.035 18.017 C 18.304 19.272,17.725 18.766,17.728 16.873 C 17.730 15.877,17.599 13.254,17.438 11.045 C 17.209 7.889,17.257 6.875,17.667 6.316 C 18.690 4.916,19.064 6.013,19.130 10.604 C 19.182 14.222,19.239 14.631,19.431 12.774 C 19.805 9.174,20.251 11.144,20.128 15.849 L 20.019 20.019 15.825 20.136 C 10.691 20.279,7.532 19.916,9.342 19.392 C 9.971 19.210,11.649 19.086,13.070 19.117 C 14.491 19.148,15.763 19.063,15.898 18.929 C 16.032 18.794,14.870 18.683,13.314 18.682 C 11.759 18.680,9.301 18.567,7.852 18.430 C 5.300 18.189,5.224 18.207,5.429 18.991 C 5.550 19.454,5.413 19.990,5.108 20.242 C 4.815 20.486,4.596 21.135,4.620 21.686 C 4.655 22.481,4.703 22.530,4.852 21.926 C 5.255 20.285,5.450 20.249,12.595 20.484 C 21.488 20.776,20.772 21.468,20.450 12.898 C 20.290 8.650,20.334 6.069,20.568 5.925 C 21.041 5.632,378.203 5.636,378.676 5.929 C 378.869 6.048,379.028 9.204,379.028 12.941 C 379.028 21.447,378.304 20.747,386.853 20.511 C 394.726 20.295,394.211 19.987,394.376 24.998 L 394.502 28.789 394.582 24.896 C 394.655 21.326,394.592 20.937,393.827 20.225 C 393.368 19.797,393.196 19.447,393.446 19.447 C 393.695 19.447,393.899 19.209,393.899 18.918 C 393.899 18.483,392.910 18.425,388.269 18.589 C 382.018 18.811,381.886 18.767,381.585 16.392 C 381.486 15.608,381.451 15.805,381.501 16.873 C 381.637 19.813,380.708 19.156,380.420 16.111 C 380.064 12.343,380.119 6.179,380.510 5.937 C 381.257 5.475,381.673 6.892,381.793 10.316 L 381.920 13.918 381.999 10.056 C 382.085 5.852,381.632 4.719,380.217 5.603 C 379.732 5.906,379.375 5.875,378.841 5.485 C 378.444 5.194,377.594 4.926,376.953 4.887 C 376.311 4.849,377.158 4.720,378.833 4.601 C 381.279 4.428,381.904 4.258,382.002 3.744 C 382.162 2.904,380.689 2.081,380.021 2.636 C 379.675 2.923,379.328 2.879,378.806 2.484 C 378.123 1.968,378.168 1.930,379.473 1.919 C 380.242 1.912,381.139 1.804,381.466 1.679 C 381.872 1.523,382.212 1.795,382.538 2.536 C 383.190 4.018,383.503 4.181,385.701 4.192 C 391.070 4.219,395.793 9.156,395.802 14.751 C 395.805 17.018,395.845 17.113,396.819 17.229 C 397.800 17.346,397.867 17.517,398.881 22.498 L 399.929 27.645 399.965 23.546 C 399.986 21.044,399.851 19.447,399.619 19.447 C 399.409 19.447,399.237 18.924,399.237 18.284 C 399.237 17.315,399.015 17.027,397.903 16.563 C 396.646 16.038,396.568 15.900,396.560 14.199 C 396.536 9.073,391.934 4.289,386.354 3.592 C 384.593 3.372,384.193 3.165,383.580 2.157 L 382.863 0.979 373.293 0.870 C 367.880 0.809,363.414 0.596,363.011 0.381 C 362.017 -0.151,359.066 -0.095,358.504 0.466 C 357.928 1.042,338.796 0.960,337.258 0.375 C 336.698 0.162,332.696 0.031,328.002 0.071 L 319.733 0.142 326.406 0.394 C 330.076 0.532,335.138 0.927,337.655 1.273 C 340.172 1.618,343.089 1.931,344.137 1.967 C 356.659 2.408,313.267 2.576,186.845 2.580 C 59.633 2.583,19.273 2.423,30.124 1.956 C 31.068 1.916,33.642 1.597,35.844 1.248 C 39.381 0.689,45.962 0.589,92.278 0.397 L 144.709 0.179 91.255 0.089 C 56.114 0.031,37.454 0.131,36.791 0.384 C 35.366 0.925,17.198 0.954,16.660 0.416 C 15.918 -0.326,15.634 -0.029,15.634 1.484 M205.605 0.284 C 207.430 0.353,210.518 0.354,212.469 0.284 C 214.419 0.215,212.927 0.158,209.152 0.158 C 205.377 0.157,203.781 0.214,205.605 0.284 M297.331 0.285 C 301.368 0.347,307.974 0.347,312.011 0.285 C 316.049 0.224,312.745 0.173,304.671 0.173 C 296.597 0.173,293.294 0.224,297.331 0.285 M365.300 1.509 C 367.712 1.729,370.372 1.965,371.211 2.034 C 372.050 2.103,371.020 2.206,368.923 2.262 C 366.826 2.318,364.166 2.488,363.012 2.640 C 361.859 2.791,364.212 2.834,368.242 2.735 C 373.810 2.597,375.708 2.669,376.150 3.036 C 377.278 3.972,376.255 4.195,370.521 4.267 C 365.211 4.334,365.030 4.358,368.351 4.553 C 379.554 5.212,354.071 5.330,200.381 5.331 C 46.491 5.332,19.699 5.209,31.459 4.554 C 34.911 4.362,34.683 4.335,29.047 4.268 C 23.702 4.205,22.840 4.113,22.946 3.615 C 23.056 3.097,40.996 3.019,190.086 2.885 C 360.813 2.733,359.732 2.736,358.913 2.412 C 357.660 1.918,358.721 0.674,360.153 0.959 C 360.572 1.042,362.889 1.290,365.300 1.509 M22.655 2.235 C 23.028 2.838,22.432 3.004,21.470 2.566 C 20.671 2.202,20.457 2.241,20.139 2.810 C 19.805 3.405,19.683 3.421,19.127 2.937 C 18.779 2.635,18.236 2.293,17.922 2.177 C 17.607 2.061,18.498 1.953,19.901 1.937 C 21.304 1.920,22.544 2.054,22.655 2.235 M377.121 2.241 C 377.121 2.547,373.708 2.371,373.340 2.046 C 373.252 1.970,374.067 1.907,375.151 1.907 C 376.235 1.907,377.121 2.057,377.121 2.241 M18.971 3.718 C 19.064 3.997,18.801 4.194,18.335 4.194 C 17.867 4.194,17.541 3.948,17.541 3.595 C 17.541 2.894,18.730 2.996,18.971 3.718 M21.648 3.742 C 21.731 3.991,21.527 4.194,21.195 4.194 C 20.863 4.194,20.591 3.923,20.591 3.591 C 20.591 2.917,21.412 3.035,21.648 3.742 M379.028 3.650 C 379.028 4.006,378.768 4.200,378.392 4.127 C 377.435 3.942,377.304 3.051,378.233 3.051 C 378.702 3.051,379.028 3.297,379.028 3.650 M381.431 3.617 C 381.472 3.824,381.206 4.051,380.839 4.122 C 380.422 4.202,380.172 4.015,380.172 3.622 C 380.172 2.959,381.298 2.954,381.431 3.617 M166.158 4.099 C 172.922 4.157,183.990 4.157,190.753 4.099 C 197.517 4.041,191.983 3.993,178.456 3.993 C 164.929 3.993,159.395 4.041,166.158 4.099 M225.862 4.099 C 232.326 4.158,242.793 4.158,249.122 4.099 C 255.451 4.040,250.162 3.992,237.369 3.992 C 224.576 3.992,219.397 4.040,225.862 4.099 M267.016 4.091 C 267.803 4.173,269.090 4.173,269.876 4.091 C 270.663 4.009,270.019 3.941,268.446 3.941 C 266.873 3.941,266.230 4.009,267.016 4.091 M20.391 4.560 C 20.917 5.411,19.717 6.499,18.984 5.836 C 18.126 5.060,18.123 4.679,18.970 4.457 C 20.063 4.172,20.155 4.178,20.391 4.560 M383.214 5.921 C 382.694 6.547,382.667 7.217,383.007 11.058 C 383.317 14.559,383.726 16.125,384.376 16.302 C 384.803 16.418,384.822 16.372,384.453 16.112 C 383.554 15.477,383.362 10.654,384.210 10.025 C 384.912 9.505,384.913 9.467,384.244 8.971 C 381.691 7.078,384.682 5.009,388.089 6.310 C 393.593 8.412,397.100 16.861,392.240 16.310 C 391.370 16.212,389.457 16.255,387.989 16.406 L 385.319 16.680 388.179 16.735 C 389.752 16.765,391.685 16.892,392.474 17.017 C 397.349 17.788,394.782 9.238,389.309 6.475 C 386.772 5.195,384.024 4.945,383.214 5.921 M8.720 9.784 C 8.514 10.033,8.398 11.065,8.462 12.077 L 8.580 13.918 10.636 14.035 C 13.241 14.184,13.469 13.935,12.916 11.541 L 12.468 9.601 10.782 9.466 C 9.788 9.387,8.941 9.518,8.720 9.784 M386.731 9.644 C 384.594 12.300,386.668 15.103,389.864 13.877 C 390.607 13.592,390.706 10.576,389.990 10.015 C 389.178 9.377,387.134 9.144,386.731 9.644 M10.855 10.734 C 11.568 10.866,11.560 10.916,10.688 11.728 C 10.044 12.329,9.940 12.583,10.338 12.583 C 10.650 12.583,11.123 12.369,11.389 12.107 C 11.776 11.725,11.981 11.777,12.420 12.372 C 13.214 13.448,12.544 13.865,10.515 13.561 C 8.798 13.303,8.770 13.277,8.770 11.861 C 8.770 10.262,9.063 9.751,9.688 10.258 C 9.917 10.443,10.443 10.657,10.855 10.734 M389.342 11.094 C 390.158 12.618,389.490 13.788,387.880 13.654 C 386.631 13.551,386.476 13.427,386.567 12.607 C 386.706 11.355,387.016 11.118,387.464 11.919 C 387.669 12.285,388.200 12.583,388.646 12.583 L 389.456 12.583 388.627 11.701 C 387.656 10.668,387.585 10.296,388.356 10.296 C 388.664 10.296,389.107 10.655,389.342 11.094 M380.416 18.701 C 380.686 18.970,382.760 19.176,385.864 19.242 C 388.621 19.301,390.977 19.448,391.098 19.570 C 391.570 20.042,389.313 20.235,384.557 20.129 L 379.600 20.019 379.556 16.587 C 379.515 13.356,379.526 13.305,379.747 15.711 C 379.876 17.117,380.177 18.462,380.416 18.701 M15.253 15.570 C 15.253 15.815,14.867 16.035,14.395 16.059 C 13.688 16.096,13.662 16.136,14.245 16.286 C 15.005 16.482,15.943 15.816,15.513 15.386 C 15.370 15.243,15.253 15.326,15.253 15.570 M1.786 19.660 C 1.513 21.345,1.788 22.116,2.663 22.116 C 3.853 22.116,4.403 21.072,3.650 20.240 C 3.217 19.762,3.138 19.438,3.413 19.268 C 3.985 18.914,3.531 18.303,2.697 18.303 C 2.201 18.303,1.944 18.686,1.786 19.660 M395.613 18.687 C 395.325 19.153,396.372 19.614,396.931 19.268 C 397.151 19.132,397.331 18.859,397.331 18.662 C 397.331 18.181,395.913 18.202,395.613 18.687 M395.678 20.083 C 395.230 20.531,395.407 21.647,395.959 21.859 C 396.911 22.224,397.964 21.163,397.365 20.442 C 396.834 19.802,396.113 19.648,395.678 20.083 M3.359 21.001 C 3.284 21.226,3.059 21.411,2.860 21.411 C 2.661 21.411,2.436 21.226,2.361 21.001 C 2.286 20.776,2.510 20.591,2.860 20.591 C 3.209 20.591,3.434 20.776,3.359 21.001 M396.949 20.972 C 396.949 21.182,396.692 21.354,396.378 21.354 C 396.063 21.354,395.806 21.182,395.806 20.972 C 395.806 20.763,396.063 20.591,396.378 20.591 C 396.692 20.591,396.949 20.763,396.949 20.972 M2.161 22.752 C 1.638 23.274,1.893 27.350,2.479 27.836 C 3.458 28.649,4.204 27.640,4.135 25.597 L 4.075 23.832 3.849 25.739 C 3.510 28.597,2.516 28.372,2.363 25.403 C 2.253 23.284,2.291 23.172,3.052 23.371 C 3.714 23.544,3.777 23.485,3.407 23.040 C 2.914 22.446,2.551 22.362,2.161 22.752 M395.592 23.373 C 395.065 24.747,395.596 28.027,396.346 28.027 C 396.748 28.027,397.121 27.808,397.175 27.541 C 397.229 27.273,397.186 27.230,397.080 27.445 C 396.460 28.694,395.806 27.719,395.806 25.548 C 395.806 23.377,396.460 22.402,397.080 23.651 C 397.186 23.866,397.229 23.823,397.175 23.556 C 397.034 22.858,395.842 22.720,395.592 23.373 M5.066 24.976 C 5.069 26.025,5.143 26.409,5.231 25.829 C 5.318 25.249,5.316 24.391,5.226 23.922 C 5.135 23.453,5.063 23.928,5.066 24.976 M5.146 190.848 C 5.146 280.191,5.190 316.683,5.243 271.942 C 5.296 227.202,5.296 154.103,5.243 109.502 C 5.190 64.900,5.146 101.506,5.146 190.848 M399.767 33.365 C 399.768 36.092,399.828 37.157,399.902 35.732 C 399.975 34.308,399.975 32.077,399.901 30.775 C 399.826 29.473,399.766 30.639,399.767 33.365 M2.096 30.219 C 1.982 30.691,1.936 103.232,1.993 191.420 L 2.097 351.764 2.955 351.885 C 3.427 351.952,3.813 351.840,3.813 351.635 C 3.813 351.430,3.470 351.353,3.050 351.463 C 2.288 351.662,2.287 351.529,2.383 190.798 C 2.474 38.241,2.513 29.936,3.142 29.986 C 3.507 30.014,3.711 29.886,3.596 29.700 C 3.197 29.055,2.301 29.365,2.096 30.219 M394.469 190.658 C 394.469 279.476,394.513 315.810,394.566 271.401 C 394.620 226.992,394.620 154.323,394.566 109.914 C 394.513 65.505,394.469 101.840,394.469 190.658 M395.612 29.810 C 394.886 31.720,395.648 351.764,396.378 351.764 C 396.920 351.764,397.158 351.489,397.203 350.810 C 397.258 349.970,397.243 349.959,397.081 350.715 C 396.979 351.187,396.651 351.573,396.351 351.573 C 395.879 351.573,395.806 329.962,395.806 190.658 C 395.806 51.354,395.879 29.743,396.351 29.743 C 396.651 29.743,396.979 30.129,397.081 30.601 C 397.244 31.361,397.258 31.351,397.203 30.509 C 397.135 29.479,395.937 28.953,395.612 29.810 M3.957 35.462 C 3.957 37.874,4.019 38.861,4.095 37.655 C 4.171 36.449,4.171 34.476,4.095 33.270 C 4.019 32.064,3.957 33.051,3.957 35.462 M397.138 190.658 C 397.138 274.442,397.182 308.718,397.235 266.826 C 397.289 224.933,397.289 156.382,397.235 114.490 C 397.182 72.598,397.138 106.873,397.138 190.658 M3.957 345.853 C 3.957 348.265,4.019 349.252,4.095 348.046 C 4.171 346.840,4.171 344.867,4.095 343.661 C 4.019 342.455,3.957 343.441,3.957 345.853 M399.767 347.950 C 399.768 350.677,399.828 351.742,399.902 350.318 C 399.975 348.893,399.975 346.663,399.901 345.361 C 399.826 344.059,399.766 345.224,399.767 347.950 M394.361 356.358 C 394.268 360.762,394.078 361.095,391.630 361.133 C 390.381 361.152,390.109 361.243,390.658 361.458 C 391.889 361.939,390.059 362.363,387.871 362.103 C 386.887 361.986,385.396 362.037,384.557 362.217 L 383.031 362.543 384.747 362.589 C 385.691 362.614,388.136 362.746,390.181 362.881 C 393.482 363.100,393.899 363.057,393.899 362.498 C 393.899 362.152,393.708 361.868,393.475 361.868 C 393.242 361.868,393.421 361.568,393.872 361.201 C 394.634 360.582,394.684 360.248,394.567 356.530 L 394.441 352.526 394.361 356.358 M2.364 353.556 C 1.197 354.723,1.926 359.079,3.207 358.588 C 4.096 358.247,3.947 357.710,3.030 357.950 C 2.297 358.142,2.254 358.012,2.363 355.913 C 2.516 352.943,3.510 352.719,3.849 355.577 L 4.075 357.483 4.135 355.748 C 4.188 354.215,3.731 353.098,3.051 353.098 C 2.925 353.098,2.616 353.304,2.364 353.556 M395.845 353.455 C 395.012 353.970,395.459 358.246,396.346 358.246 C 396.748 358.246,397.121 358.027,397.175 357.760 C 397.229 357.492,397.186 357.449,397.080 357.664 C 396.495 358.844,395.806 357.955,395.806 356.022 C 395.806 353.778,396.049 353.272,396.819 353.911 C 397.141 354.178,397.331 354.192,397.331 353.948 C 397.331 353.414,396.407 353.107,395.845 353.455 M398.827 358.857 C 397.872 363.823,397.816 363.969,396.825 364.086 C 395.837 364.203,395.806 364.284,395.806 366.673 C 395.806 373.113,391.057 377.164,383.127 377.491 C 382.969 377.497,382.841 377.825,382.841 378.218 C 382.841 378.612,382.626 379.111,382.364 379.328 C 381.776 379.813,378.190 379.457,378.507 378.945 C 378.632 378.743,379.291 378.682,379.972 378.810 C 381.352 379.069,382.327 378.320,381.937 377.302 C 381.756 376.831,381.123 376.724,378.832 376.777 C 377.249 376.814,375.845 376.735,375.712 376.601 C 375.578 376.468,376.065 376.358,376.794 376.358 C 377.523 376.358,378.444 376.121,378.841 375.831 C 379.375 375.441,379.732 375.410,380.217 375.713 C 381.610 376.582,382.084 375.454,382.010 371.450 L 381.942 367.779 381.724 371.467 C 381.503 375.206,381.310 375.873,380.578 375.421 C 379.707 374.882,380.253 362.631,381.148 362.631 C 381.415 362.631,381.697 362.821,381.774 363.054 C 381.863 363.319,382.106 363.248,382.425 362.864 C 382.874 362.322,382.797 362.250,381.766 362.250 C 380.256 362.250,380.030 362.655,379.742 365.872 C 379.522 368.343,379.507 368.267,379.552 364.859 C 379.578 362.833,379.471 361.256,379.314 361.354 C 379.156 361.452,379.028 364.676,379.028 368.519 C 379.028 376.742,379.710 375.926,372.736 376.044 C 369.351 376.101,368.756 376.174,370.448 376.323 L 372.736 376.524 369.304 376.751 C 366.003 376.968,366.071 376.980,371.093 377.049 C 376.263 377.120,377.259 377.359,376.168 378.265 C 375.754 378.609,373.805 378.694,368.831 378.588 C 365.107 378.508,362.574 378.554,363.203 378.690 C 363.832 378.826,366.134 378.958,368.319 378.983 C 373.236 379.038,373.166 379.292,368.150 379.599 C 366.058 379.728,363.291 379.995,361.999 380.194 C 360.708 380.393,359.378 380.451,359.044 380.323 C 358.232 380.011,358.270 379.121,359.104 378.936 C 359.471 378.854,354.881 378.785,348.904 378.781 C 341.924 378.776,339.469 378.861,342.040 379.017 C 344.242 379.150,345.272 379.295,344.328 379.338 C 343.384 379.381,340.467 379.696,337.846 380.039 C 335.224 380.382,330.076 380.777,326.406 380.918 L 319.733 381.173 327.934 381.244 C 332.444 381.284,336.723 381.147,337.442 380.941 C 339.448 380.365,357.949 380.294,358.514 380.859 C 359.067 381.412,362.026 381.462,363.011 380.935 C 363.423 380.714,367.721 380.540,373.264 380.519 L 382.806 380.484 383.539 379.242 C 384.189 378.140,384.508 377.976,386.364 377.784 C 391.728 377.231,396.536 372.200,396.560 367.117 C 396.568 365.416,396.646 365.278,397.903 364.753 C 399.003 364.293,399.237 363.996,399.237 363.064 C 399.237 362.441,399.415 361.873,399.633 361.800 C 399.882 361.717,399.988 360.201,399.919 357.708 L 399.809 353.748 398.827 358.857 M5.066 356.339 C 5.069 357.388,5.143 357.772,5.231 357.192 C 5.318 356.612,5.316 355.755,5.226 355.286 C 5.135 354.817,5.063 355.291,5.066 356.339 M4.620 359.629 C 4.596 360.180,4.815 360.830,5.108 361.073 C 5.401 361.316,5.553 361.852,5.445 362.264 C 5.263 362.962,5.450 363.011,8.249 362.986 C 11.226 362.959,14.148 362.342,11.630 362.271 C 11.001 362.254,10.057 362.123,9.533 361.980 L 8.580 361.721 9.533 361.451 C 10.189 361.266,9.757 361.170,8.150 361.144 C 5.768 361.105,5.199 360.803,4.852 359.390 C 4.703 358.785,4.655 358.835,4.620 359.629 M1.966 359.700 C 1.307 360.494,1.863 363.012,2.697 363.012 C 3.531 363.012,3.985 362.401,3.413 362.048 C 3.138 361.878,3.217 361.554,3.650 361.075 C 4.181 360.489,4.212 360.251,3.819 359.778 C 3.228 359.067,2.516 359.036,1.966 359.700 M395.563 360.151 C 395.211 361.068,396.040 361.766,396.865 361.246 C 397.791 360.662,397.681 359.794,396.662 359.649 C 396.134 359.574,395.710 359.768,395.563 360.151 M3.432 360.343 C 3.432 360.553,3.174 360.724,2.860 360.724 C 2.545 360.724,2.288 360.553,2.288 360.343 C 2.288 360.133,2.545 359.962,2.860 359.962 C 3.174 359.962,3.432 360.133,3.432 360.343 M396.949 360.343 C 396.949 360.553,396.692 360.724,396.378 360.724 C 396.063 360.724,395.806 360.553,395.806 360.343 C 395.806 360.133,396.063 359.962,396.378 359.962 C 396.692 359.962,396.949 360.133,396.949 360.343 M11.344 360.994 C 11.816 361.084,12.588 361.084,13.060 360.994 C 13.532 360.903,13.146 360.828,12.202 360.828 C 11.258 360.828,10.872 360.903,11.344 360.994 M16.308 361.001 C 16.993 361.086,18.023 361.084,18.596 360.997 C 19.169 360.910,18.608 360.841,17.350 360.843 C 16.092 360.845,15.623 360.916,16.308 361.001 M380.843 360.994 C 381.318 361.085,382.004 361.082,382.369 360.986 C 382.733 360.891,382.345 360.816,381.506 360.821 C 380.667 360.825,380.369 360.903,380.843 360.994 M20.137 365.519 C 20.206 368.037,20.091 370.145,19.863 370.536 C 19.560 371.056,19.450 370.643,19.382 368.732 C 19.322 367.060,19.226 367.742,19.084 370.825 C 18.910 374.641,18.772 375.416,18.254 375.515 C 17.288 375.700,17.133 374.259,17.543 368.884 C 17.749 366.188,17.821 363.678,17.703 363.306 C 17.419 362.409,18.505 362.403,19.061 363.298 C 19.440 363.908,19.466 363.900,19.363 363.203 C 19.281 362.652,18.908 362.407,18.014 362.321 C 16.654 362.189,16.567 362.303,17.223 363.353 C 17.561 363.896,17.561 364.707,17.223 366.758 C 16.978 368.239,16.775 369.933,16.772 370.521 C 16.764 371.980,16.241 372.713,15.430 372.402 C 14.807 372.163,14.806 372.106,15.414 371.434 C 15.888 370.910,16.022 370.226,15.916 368.868 L 15.771 367.016 15.703 368.781 C 15.663 369.811,15.396 370.743,15.062 371.020 C 14.329 371.628,14.329 372.402,15.062 372.683 C 16.022 373.052,15.799 375.165,14.776 375.383 C 14.304 375.484,13.575 375.639,13.155 375.727 C 12.671 375.830,12.818 375.905,13.559 375.933 C 14.201 375.957,15.059 375.725,15.466 375.417 C 16.580 374.574,16.838 374.710,16.707 376.072 L 16.587 377.312 14.299 377.194 C 10.531 377.000,4.576 373.339,4.576 371.217 C 4.576 370.972,4.133 370.356,3.592 369.847 C 2.595 368.911,2.492 367.684,3.223 365.468 C 3.523 364.561,2.305 363.842,0.858 364.073 C -0.521 364.292,-0.343 366.039,1.049 365.944 C 2.034 365.877,2.104 365.976,2.202 367.588 C 2.315 369.452,2.684 370.370,4.292 372.795 C 5.897 375.214,10.303 377.825,12.838 377.861 C 15.274 377.896,15.634 378.149,15.634 379.831 C 15.634 381.332,15.919 381.641,16.639 380.920 C 17.135 380.425,33.779 380.436,36.225 380.933 C 37.224 381.137,60.154 381.252,91.134 381.211 L 144.328 381.139 91.706 380.913 C 62.765 380.789,38.656 380.561,38.132 380.407 C 37.607 380.252,35.205 379.901,32.793 379.627 L 28.408 379.127 32.031 378.997 C 35.095 378.886,34.685 378.834,29.366 378.661 C 23.777 378.478,23.065 378.382,22.951 377.788 C 22.834 377.180,23.319 377.115,28.475 377.049 C 33.635 376.983,33.828 376.957,30.696 376.751 C 27.433 376.537,27.367 376.516,29.361 376.322 C 30.673 376.195,29.524 376.092,26.292 376.048 C 19.696 375.958,20.165 376.577,20.463 368.338 C 20.604 364.452,20.562 361.514,20.363 361.390 C 20.164 361.266,20.069 363.002,20.137 365.519 M384.659 361.382 C 385.344 361.467,386.374 361.465,386.947 361.378 C 387.520 361.291,386.959 361.222,385.701 361.224 C 384.442 361.226,383.974 361.297,384.659 361.382 M395.702 362.099 C 395.287 362.514,395.789 363.012,396.622 363.012 C 397.070 363.012,397.328 362.812,397.236 362.536 C 397.054 361.991,396.086 361.715,395.702 362.099 M13.632 362.519 C 14.104 362.610,14.876 362.610,15.348 362.519 C 15.820 362.428,15.434 362.354,14.490 362.354 C 13.546 362.354,13.160 362.428,13.632 362.519 M381.419 365.300 C 381.419 366.244,381.494 366.630,381.585 366.158 C 381.676 365.686,381.676 364.914,381.585 364.442 C 381.494 363.970,381.419 364.357,381.419 365.300 M4.198 365.291 C 2.825 368.608,6.984 374.570,11.249 375.398 C 12.214 375.585,12.153 375.513,10.863 374.940 C 7.635 373.507,5.461 370.920,4.782 367.706 C 4.310 365.472,6.115 364.095,7.973 365.271 C 8.295 365.475,8.854 365.453,9.373 365.217 C 10.588 364.663,15.154 365.188,15.382 365.908 C 15.493 366.258,15.534 366.217,15.496 365.794 C 15.425 365.000,14.080 364.734,8.523 364.415 L 4.653 364.193 4.198 365.291 M391.855 364.421 C 391.709 364.567,390.265 364.673,388.645 364.658 L 385.701 364.630 387.989 364.924 C 389.247 365.085,391.075 365.130,392.051 365.024 C 397.093 364.474,393.332 373.602,387.838 375.247 C 384.457 376.260,381.894 374.167,384.382 372.425 L 385.203 371.849 384.403 371.421 C 383.235 370.796,383.409 365.553,384.611 365.167 C 384.910 365.071,384.849 365.023,384.471 365.058 C 383.728 365.126,382.700 369.330,383.042 370.898 C 383.142 371.356,383.058 372.164,382.856 372.695 C 381.179 377.108,388.316 377.086,392.272 372.667 C 394.601 370.064,395.784 365.343,394.305 364.551 C 393.459 364.098,392.242 364.033,391.855 364.421 M8.643 367.461 C 8.252 367.852,8.342 371.202,8.755 371.615 C 9.974 372.834,12.459 371.753,12.908 369.808 C 13.150 368.759,13.252 367.745,13.134 367.554 C 12.889 367.156,9.027 367.077,8.643 367.461 M386.061 368.109 C 385.517 370.276,386.552 372.217,388.102 371.937 C 390.405 371.523,391.725 368.152,389.864 367.438 C 388.291 366.835,386.292 367.187,386.061 368.109 M12.739 367.913 C 13.320 368.853,11.972 369.611,10.931 368.929 C 9.695 368.119,9.582 368.656,10.772 369.686 C 11.606 370.407,11.609 370.433,10.867 370.575 C 10.448 370.655,9.917 370.872,9.688 371.058 C 9.063 371.564,8.770 371.054,8.770 369.458 C 8.770 368.273,8.920 367.994,9.628 367.857 C 11.180 367.558,12.535 367.583,12.739 367.913 M389.342 368.183 C 390.017 368.997,389.395 370.649,388.255 371.068 C 387.265 371.433,387.379 371.040,388.684 369.590 C 389.604 368.568,388.662 368.304,387.662 369.304 C 386.908 370.058,386.783 370.030,386.526 369.047 C 386.131 367.537,388.263 366.883,389.342 368.183 M20.390 376.756 C 20.189 377.083,18.827 376.936,18.371 376.538 C 18.304 376.479,18.550 376.079,18.919 375.648 C 19.646 374.799,20.980 375.802,20.390 376.756 M115.634 375.882 C 161.930 375.935,237.688 375.935,283.985 375.882 C 330.281 375.828,292.402 375.785,199.809 375.785 C 107.216 375.785,69.337 375.828,115.634 375.882 M19.066 377.693 C 19.066 378.011,18.727 378.265,18.303 378.265 C 17.879 378.265,17.541 378.011,17.541 377.693 C 17.541 377.375,17.879 377.121,18.303 377.121 C 18.727 377.121,19.066 377.375,19.066 377.693 M21.648 377.812 C 21.731 378.061,21.527 378.265,21.195 378.265 C 20.863 378.265,20.591 377.993,20.591 377.661 C 20.591 376.988,21.412 377.105,21.648 377.812 M38.428 377.401 C 39.324 377.481,40.697 377.480,41.478 377.398 C 42.259 377.316,41.525 377.250,39.847 377.252 C 38.170 377.253,37.531 377.320,38.428 377.401 M152.972 377.407 C 189.185 377.461,248.555 377.461,284.907 377.407 C 321.259 377.353,291.630 377.310,219.066 377.310 C 146.501 377.310,116.759 377.353,152.972 377.407 M353.972 377.404 C 355.396 377.478,357.627 377.477,358.929 377.403 C 360.231 377.329,359.066 377.269,356.339 377.269 C 353.613 377.270,352.548 377.331,353.972 377.404 M379.028 377.693 C 379.028 378.011,378.689 378.265,378.265 378.265 C 377.505 378.265,377.273 377.859,377.757 377.375 C 378.221 376.911,379.028 377.113,379.028 377.693 M381.431 377.688 C 381.472 377.895,381.206 378.122,380.839 378.192 C 380.422 378.273,380.172 378.086,380.172 377.693 C 380.172 377.030,381.298 377.025,381.431 377.688 M18.908 378.701 C 19.692 378.344,20.018 378.335,20.223 378.668 C 20.399 378.953,20.935 379.013,21.735 378.837 C 22.601 378.647,22.896 378.692,22.713 378.987 C 22.281 379.687,16.397 379.544,16.397 378.834 C 16.397 378.361,16.528 378.341,17.131 378.717 C 17.705 379.076,18.092 379.072,18.908 378.701 M111.249 378.551 C 152.827 378.604,220.863 378.604,262.440 378.551 C 304.018 378.498,270.000 378.454,186.845 378.454 C 103.689 378.454,69.671 378.498,111.249 378.551 M377.121 379.028 C 377.121 379.241,376.238 379.384,375.119 379.352 L 373.117 379.294 374.833 379.028 C 375.777 378.881,376.678 378.735,376.835 378.704 C 376.992 378.672,377.121 378.818,377.121 379.028 M205.643 381.218 C 207.489 381.288,210.406 381.288,212.125 381.218 C 213.845 381.147,212.336 381.090,208.770 381.090 C 205.205 381.091,203.798 381.148,205.643 381.218 M297.356 381.220 C 301.407 381.282,307.927 381.282,311.846 381.220 C 315.764 381.158,312.450 381.107,304.480 381.107 C 296.511 381.107,293.305 381.158,297.356 381.220 " stroke="none" fill="#584a3f" fill-rule="evenodd"></path><path id="path3" d="M93.994 0.391 C 64.843 0.521,40.477 0.756,39.847 0.914 C 39.218 1.071,37.760 1.390,36.606 1.622 C 34.650 2.017,34.586 2.063,35.653 2.312 C 37.145 2.660,336.596 2.676,337.846 2.328 C 345.112 0.304,261.871 -0.357,93.994 0.391 M332.645 1.386 C 333.618 1.520,334.414 1.777,334.414 1.958 C 334.414 2.143,269.461 2.288,186.768 2.288 C 98.906 2.288,39.270 2.148,39.485 1.944 C 39.684 1.754,40.191 1.517,40.610 1.416 C 41.768 1.137,330.614 1.108,332.645 1.386 M358.818 1.667 C 358.818 2.193,359.301 2.284,361.964 2.264 C 365.495 2.237,365.075 1.753,361.132 1.307 C 359.141 1.082,358.818 1.132,358.818 1.667 M33.365 4.553 C 30.625 4.723,30.193 4.824,31.220 5.052 C 32.862 5.417,368.217 5.355,369.495 4.990 C 372.105 4.243,45.146 3.818,33.365 4.553 M10.867 5.185 C 10.145 5.739,10.165 5.754,11.249 5.459 C 11.878 5.288,13.122 5.152,14.013 5.158 C 14.905 5.163,15.634 5.035,15.634 4.872 C 15.634 4.320,11.654 4.581,10.867 5.185 M386.273 5.004 C 386.797 5.232,387.998 5.758,388.942 6.171 C 391.288 7.198,392.875 8.638,393.911 10.677 C 394.390 11.621,394.852 12.188,394.937 11.937 C 395.626 9.915,390.524 5.201,387.226 4.812 C 385.642 4.625,385.481 4.658,386.273 5.004 M19.366 12.793 C 19.322 14.041,19.279 15.860,19.271 16.836 C 19.252 19.199,19.277 19.186,14.783 19.136 C 12.629 19.113,10.267 19.232,9.533 19.402 L 8.198 19.711 9.914 19.982 C 10.858 20.131,13.518 20.200,15.825 20.136 L 20.019 20.019 20.127 15.666 C 20.193 13.028,20.081 11.158,19.841 10.919 C 19.570 10.647,19.422 11.230,19.366 12.793 M8.989 11.934 C 8.818 12.520,8.785 13.107,8.915 13.237 C 9.342 13.664,9.593 13.054,9.445 11.951 L 9.300 10.867 8.989 11.934 M381.875 14.683 C 381.488 18.814,381.538 18.851,387.158 18.549 C 392.754 18.248,393.824 17.805,390.396 17.208 C 389.038 16.971,387.211 16.778,386.337 16.778 C 384.529 16.778,383.225 15.782,383.217 14.395 C 383.196 10.983,382.202 11.197,381.875 14.683 M16.280 12.827 C 16.134 12.973,16.013 13.621,16.009 14.268 C 16.000 16.111,15.613 16.367,12.181 16.793 C 5.675 17.602,5.690 18.093,12.233 18.471 C 17.533 18.778,17.761 18.647,17.345 15.550 C 17.048 13.340,16.688 12.419,16.280 12.827 M379.551 16.969 L 379.600 20.019 384.557 20.129 C 389.313 20.235,391.570 20.042,391.098 19.570 C 390.977 19.448,388.621 19.301,385.864 19.242 C 380.115 19.120,380.080 19.102,379.745 16.095 C 379.526 14.125,379.508 14.208,379.551 16.969 M384.237 16.899 C 384.623 17.005,385.599 17.204,386.407 17.341 C 388.255 17.654,388.121 17.764,385.509 18.080 C 382.666 18.425,381.862 17.861,382.249 15.795 L 382.528 14.308 383.032 15.507 C 383.309 16.166,383.851 16.792,384.237 16.899 M17.012 17.373 C 16.867 17.751,16.198 17.922,14.861 17.922 C 13.664 17.922,13.010 17.776,13.155 17.541 C 13.285 17.331,13.705 17.159,14.089 17.159 C 14.473 17.159,15.192 16.830,15.687 16.428 C 16.666 15.634,17.462 16.201,17.012 17.373 M3.612 19.464 C 3.308 19.956,4.155 21.042,4.619 20.755 C 4.805 20.640,4.957 20.213,4.957 19.806 C 4.957 19.024,4.030 18.788,3.612 19.464 M394.029 20.143 C 395.002 21.218,395.002 360.097,394.029 361.173 C 393.434 361.830,393.456 361.868,394.419 361.868 C 395.296 361.868,395.408 361.744,395.216 360.982 C 394.903 359.735,395.793 359.068,397.105 359.567 C 398.296 360.020,398.546 359.579,399.226 355.828 C 399.736 353.018,399.680 372.045,399.713 190.848 C 399.742 33.192,399.706 25.889,398.891 23.642 C 398.625 22.908,398.343 22.094,398.263 21.833 C 398.152 21.466,397.902 21.457,397.164 21.793 C 395.896 22.371,394.953 21.653,395.279 20.357 C 395.478 19.562,395.373 19.447,394.453 19.447 C 393.457 19.447,393.434 19.485,394.029 20.143 M0.000 22.622 C 0.000 24.279,0.132 24.786,0.565 24.786 C 0.876 24.786,1.223 25.256,1.338 25.834 C 1.453 26.411,1.692 27.337,1.869 27.891 C 2.047 28.446,2.044 29.133,1.864 29.417 C 1.436 30.093,1.436 351.222,1.864 351.899 C 2.044 352.183,2.055 352.869,1.889 353.424 C 1.722 353.979,1.431 354.948,1.242 355.577 C 1.053 356.206,0.696 356.678,0.449 356.625 C 0.146 356.561,0.000 357.234,0.000 358.694 L 0.000 360.857 0.953 359.962 C 1.799 359.167,1.907 358.757,1.907 356.314 C 1.907 353.399,2.476 352.528,3.711 353.553 C 4.509 354.215,4.186 357.889,3.272 358.558 C 2.651 359.011,2.672 359.078,3.552 359.479 C 4.389 359.860,4.526 359.813,4.723 359.078 C 5.014 357.990,5.014 23.326,4.723 22.237 C 4.530 21.516,4.380 21.459,3.600 21.815 L 2.699 22.225 3.447 23.175 C 4.887 25.006,4.157 28.723,2.483 28.081 C 2.041 27.911,1.907 27.207,1.907 25.055 C 1.907 22.555,1.803 22.152,0.953 21.354 L 0.000 20.458 0.000 22.622 M397.401 23.534 C 397.751 25.350,397.141 28.027,396.378 28.027 C 395.604 28.027,395.048 24.792,395.581 23.401 C 395.868 22.654,397.251 22.755,397.401 23.534 M399.047 190.276 C 399.047 280.772,398.913 355.293,398.750 355.878 C 398.356 357.286,397.712 356.833,397.712 355.148 C 397.712 354.412,397.540 353.489,397.330 353.096 C 397.074 352.619,397.074 352.303,397.330 352.146 C 397.584 351.988,397.712 298.037,397.712 190.658 C 397.712 83.278,397.584 29.327,397.330 29.170 C 397.074 29.012,397.074 28.697,397.330 28.219 C 397.540 27.826,397.712 26.922,397.712 26.209 C 397.712 24.630,398.103 24.149,398.644 25.061 C 398.925 25.534,399.047 75.510,399.047 190.276 M3.874 30.696 C 4.230 32.024,4.302 348.290,3.947 350.510 C 3.749 351.745,3.574 351.974,2.903 351.879 L 2.097 351.764 2.000 191.039 C 1.946 102.641,1.988 30.087,2.094 29.810 C 2.425 28.939,3.554 29.501,3.874 30.696 M397.140 190.663 C 397.140 351.509,397.139 351.764,396.378 351.764 C 395.648 351.764,394.886 31.720,395.612 29.810 C 395.717 29.532,396.104 29.363,396.472 29.434 C 397.107 29.556,397.140 37.431,397.140 190.663 M397.391 355.359 C 397.578 357.969,397.409 358.502,396.441 358.364 C 395.716 358.260,395.601 357.970,395.499 355.993 C 395.322 352.568,397.148 351.956,397.391 355.359 M3.840 361.055 C 3.553 361.592,3.583 361.901,3.952 362.206 C 4.546 362.700,4.957 362.390,4.957 361.446 C 4.957 360.446,4.291 360.213,3.840 361.055 M9.533 361.496 C 8.171 361.920,8.395 361.955,14.109 362.210 L 19.256 362.440 19.271 364.347 C 19.309 369.249,19.453 370.785,19.841 370.397 C 20.081 370.158,20.193 368.288,20.127 365.649 L 20.019 361.296 15.253 361.248 C 12.631 361.221,10.057 361.332,9.533 361.496 M379.622 361.401 C 379.505 361.518,379.434 362.915,379.465 364.506 L 379.521 367.398 379.754 365.221 C 380.069 362.280,380.078 362.275,385.808 362.130 C 388.577 362.059,390.958 361.886,391.100 361.744 C 391.411 361.433,391.526 361.441,385.056 361.301 C 382.185 361.239,379.739 361.284,379.622 361.401 M10.802 362.982 C 5.748 363.341,6.132 363.775,12.199 364.561 C 15.681 365.012,16.000 365.224,16.009 367.089 C 16.023 369.925,16.941 368.899,17.355 365.585 C 17.652 363.205,17.131 362.567,14.992 362.696 C 14.401 362.731,12.516 362.860,10.802 362.982 M382.124 363.148 C 381.563 363.824,381.852 369.495,382.448 369.495 C 382.796 369.495,383.209 368.152,383.217 366.994 C 383.228 365.349,384.063 364.854,387.383 364.519 C 394.355 363.816,394.181 363.184,386.901 362.769 C 383.230 362.559,382.569 362.611,382.124 363.148 M16.971 363.778 C 17.101 363.990,17.099 364.507,16.966 364.928 L 16.723 365.694 15.746 364.925 C 15.208 364.502,14.352 364.156,13.844 364.156 C 13.325 364.156,13.023 363.989,13.155 363.775 C 13.463 363.277,16.662 363.280,16.971 363.778 M387.035 363.738 C 386.721 363.914,385.807 364.176,385.005 364.321 C 383.860 364.527,383.443 364.831,383.060 365.744 C 382.533 366.995,382.078 366.539,382.078 364.761 C 382.078 363.506,382.331 363.393,385.097 363.405 C 386.659 363.413,387.391 363.538,387.035 363.738 M8.979 368.446 C 8.819 368.813,8.819 369.414,8.979 369.781 C 9.345 370.621,9.698 369.572,9.429 368.446 C 9.277 367.811,9.256 367.811,8.979 368.446 M394.085 370.511 C 393.123 372.539,390.808 374.473,387.862 375.710 L 385.319 376.778 387.226 376.535 C 389.413 376.256,390.980 375.400,392.584 373.609 C 393.892 372.149,395.299 369.623,394.981 369.306 C 394.860 369.185,394.457 369.727,394.085 370.511 M10.845 376.162 C 11.612 376.760,15.634 376.997,15.634 376.444 C 15.634 376.281,14.905 376.152,14.013 376.158 C 13.122 376.163,11.878 376.036,11.249 375.876 C 10.174 375.602,10.150 375.619,10.845 376.162 M30.505 376.326 C 26.836 377.010,49.870 377.118,200.191 377.118 C 351.830 377.118,374.350 377.010,369.304 376.309 C 366.888 375.973,32.307 375.990,30.505 376.326 M36.225 378.998 C 34.487 379.326,35.172 379.561,40.229 380.369 C 46.363 381.349,327.329 381.422,333.344 380.445 C 338.396 379.624,339.246 379.337,337.655 378.988 C 336.159 378.659,37.969 378.670,36.225 378.998 M334.414 379.359 C 334.414 380.115,325.516 380.163,186.797 380.167 C 48.145 380.171,39.657 380.125,39.657 379.361 C 39.657 379.171,103.073 379.028,187.035 379.028 C 270.243 379.028,334.414 379.172,334.414 379.359 M358.818 379.652 C 358.818 380.195,359.155 380.242,361.392 380.014 C 365.104 379.634,365.326 379.028,361.754 379.028 C 359.288 379.028,358.818 379.128,358.818 379.652 " stroke="none" fill="#746c5e" fill-rule="evenodd"></path><path id="path4" d="M14.703 0.982 C 14.771 1.608,14.648 1.903,14.364 1.795 C 14.119 1.702,13.489 1.800,12.965 2.014 C 12.440 2.228,11.696 2.364,11.311 2.316 C 10.926 2.268,10.287 2.523,9.890 2.882 C 9.493 3.241,8.778 3.576,8.302 3.626 C 7.825 3.675,7.211 3.738,6.937 3.764 C 6.662 3.791,6.527 3.959,6.638 4.137 C 6.839 4.464,5.196 6.101,4.666 6.101 C 4.509 6.101,3.970 7.002,3.469 8.103 C 2.967 9.204,2.407 10.203,2.223 10.324 C 1.592 10.737,0.938 16.015,1.518 16.015 C 1.888 16.015,2.276 14.637,2.283 13.294 C 2.304 9.119,8.583 3.432,13.171 3.432 C 15.240 3.432,15.634 3.121,15.634 1.484 C 15.634 0.486,15.464 0.000,15.114 0.000 C 14.782 0.000,14.634 0.355,14.703 0.982 M16.660 0.416 C 17.182 0.938,35.356 0.931,36.662 0.408 C 37.258 0.169,33.978 0.040,26.902 0.024 C 19.210 0.007,16.360 0.116,16.660 0.416 M337.386 0.400 C 338.801 0.968,357.943 1.028,358.504 0.466 C 358.872 0.099,356.591 0.005,347.741 0.024 C 340.491 0.040,336.821 0.173,337.386 0.400 M363.073 0.392 C 363.420 0.595,368.015 0.810,373.284 0.870 L 382.863 0.979 383.580 2.157 C 384.193 3.165,384.593 3.372,386.354 3.592 C 391.934 4.289,396.536 9.073,396.560 14.199 C 396.568 15.900,396.646 16.038,397.903 16.563 C 399.015 17.027,399.237 17.315,399.237 18.284 C 399.237 18.924,399.409 19.447,399.619 19.447 C 400.510 19.447,400.049 15.694,399.142 15.565 C 398.469 15.470,398.306 15.228,398.386 14.447 C 398.442 13.898,398.227 13.234,397.909 12.970 C 397.591 12.706,397.331 11.996,397.331 11.393 C 397.331 10.789,397.176 10.296,396.987 10.296 C 396.517 10.296,395.755 8.016,396.060 7.524 C 396.194 7.306,396.142 7.228,395.943 7.351 C 395.744 7.474,394.831 6.814,393.915 5.884 C 392.999 4.955,392.089 4.194,391.893 4.194 C 391.696 4.194,390.995 3.954,390.334 3.660 C 388.481 2.836,386.626 2.288,385.691 2.288 C 385.053 2.288,384.786 2.004,384.614 1.144 L 384.385 0.000 373.413 0.012 C 366.154 0.019,362.654 0.148,363.073 0.392 M346.806 2.708 C 340.934 2.858,265.691 2.984,179.600 2.988 C 42.895 2.995,23.055 3.066,22.955 3.551 C 22.845 4.083,375.522 4.447,376.472 3.916 C 378.137 2.984,375.483 2.636,367.431 2.731 C 362.799 2.786,358.665 2.741,358.246 2.633 C 357.827 2.524,352.679 2.558,346.806 2.708 M17.541 3.595 C 17.541 3.948,17.867 4.194,18.335 4.194 C 19.264 4.194,19.133 3.303,18.176 3.118 C 17.800 3.045,17.541 3.239,17.541 3.595 M20.591 3.591 C 20.591 3.923,20.863 4.194,21.195 4.194 C 21.527 4.194,21.731 3.991,21.648 3.742 C 21.412 3.035,20.591 2.917,20.591 3.591 M377.598 3.527 C 377.838 4.249,379.028 4.351,379.028 3.650 C 379.028 3.297,378.702 3.051,378.233 3.051 C 377.767 3.051,377.504 3.248,377.598 3.527 M380.172 3.622 C 380.172 4.015,380.422 4.202,380.839 4.122 C 381.643 3.967,381.592 3.290,380.764 3.118 C 380.418 3.046,380.172 3.256,380.172 3.622 M20.748 5.838 C 20.284 6.097,20.237 7.217,20.450 12.894 C 20.772 21.470,21.491 20.776,12.577 20.483 C 8.814 20.359,5.643 20.407,5.531 20.588 C 5.255 21.035,5.271 360.307,5.547 360.753 C 5.667 360.947,6.913 361.075,8.316 361.037 C 10.516 360.978,10.605 360.951,8.961 360.842 C 7.912 360.773,6.711 360.640,6.292 360.546 C 5.424 360.353,5.043 21.027,5.910 20.929 C 6.120 20.905,9.311 20.920,13.001 20.961 C 21.767 21.059,21.115 21.715,20.926 12.984 L 20.782 6.292 199.714 6.196 L 378.646 6.100 378.646 13.142 C 378.646 21.755,377.966 21.069,386.407 20.966 C 389.794 20.925,392.865 20.910,393.232 20.932 C 393.867 20.970,393.895 29.247,393.804 190.753 L 393.708 360.534 391.611 360.758 L 389.514 360.982 391.439 361.044 C 392.512 361.078,393.568 360.903,393.823 360.648 C 394.436 360.035,394.495 21.340,393.882 20.727 C 393.622 20.466,391.186 20.392,386.834 20.512 C 378.303 20.747,379.028 21.455,379.028 12.882 C 379.028 6.674,378.965 6.014,378.360 5.863 C 377.115 5.552,21.303 5.527,20.748 5.838 M11.818 6.076 C 6.106 7.814,1.522 17.106,6.802 16.244 C 7.570 16.119,8.456 16.038,8.770 16.065 C 11.925 16.334,14.947 16.130,15.265 15.626 C 15.859 14.688,15.712 10.835,15.062 10.296 C 14.747 10.034,14.490 9.603,14.490 9.336 C 14.490 9.070,14.747 8.753,15.062 8.632 C 15.747 8.370,15.819 6.820,15.176 6.177 C 14.670 5.671,13.286 5.630,11.818 6.076 M17.546 6.473 C 17.232 7.059,17.226 8.632,17.524 12.363 C 17.748 15.163,17.818 17.749,17.680 18.108 C 17.489 18.605,17.603 18.728,18.152 18.623 C 18.827 18.493,18.875 18.066,18.875 12.229 C 18.875 5.909,18.565 4.567,17.546 6.473 M380.422 5.977 C 379.733 6.667,380.359 18.685,381.085 18.684 C 381.783 18.682,381.910 6.753,381.218 6.178 C 380.918 5.930,380.560 5.839,380.422 5.977 M383.858 5.974 C 383.343 6.488,383.620 8.508,384.271 8.991 C 384.903 9.459,384.899 9.514,384.210 10.025 C 383.360 10.655,383.555 15.509,384.453 16.075 C 385.445 16.699,393.911 16.323,394.278 15.638 C 396.286 11.887,386.770 3.061,383.858 5.974 M15.171 7.285 C 15.376 8.365,13.747 8.997,11.153 8.844 C 8.407 8.681,8.197 8.332,10.200 7.261 C 11.961 6.320,14.991 6.335,15.171 7.285 M388.916 7.232 C 392.305 8.961,395.070 14.187,393.351 15.614 C 392.945 15.951,392.601 15.960,392.017 15.647 C 391.141 15.179,391.144 15.188,391.226 12.084 C 391.305 9.145,390.937 8.770,387.973 8.770 C 384.969 8.770,384.366 8.541,384.366 7.395 C 384.366 6.204,386.734 6.119,388.916 7.232 M12.916 11.541 C 13.469 13.935,13.241 14.184,10.636 14.035 L 8.580 13.918 8.462 12.077 C 8.312 9.719,8.684 9.300,10.782 9.466 L 12.468 9.601 12.916 11.541 M389.990 10.015 C 390.706 10.576,390.607 13.592,389.864 13.877 C 387.208 14.896,385.572 13.793,386.098 11.336 C 386.550 9.220,388.246 8.645,389.990 10.015 M7.930 12.107 C 7.820 14.600,7.784 14.684,6.766 14.802 C 5.254 14.975,5.108 14.108,6.236 11.645 C 7.553 8.769,8.070 8.910,7.930 12.107 M14.858 11.033 C 15.605 12.429,15.123 15.308,14.234 14.758 C 13.761 14.466,13.626 10.296,14.089 10.296 C 14.295 10.296,14.641 10.627,14.858 11.033 M385.510 12.379 C 385.510 14.331,386.124 14.871,388.345 14.871 C 389.093 14.871,389.704 15.051,389.704 15.270 C 389.704 15.519,388.739 15.626,387.131 15.556 L 384.557 15.443 384.443 13.060 C 384.351 11.114,384.438 10.677,384.920 10.677 C 385.364 10.677,385.510 11.097,385.510 12.379 M2.361 21.001 C 2.436 21.226,2.661 21.411,2.860 21.411 C 3.059 21.411,3.284 21.226,3.359 21.001 C 3.434 20.776,3.209 20.591,2.860 20.591 C 2.510 20.591,2.286 20.776,2.361 21.001 M395.806 20.972 C 395.806 21.182,396.063 21.354,396.378 21.354 C 396.692 21.354,396.949 21.182,396.949 20.972 C 396.949 20.763,396.692 20.591,396.378 20.591 C 396.063 20.591,395.806 20.763,395.806 20.972 M2.363 25.421 C 2.450 27.093,2.621 27.645,3.051 27.645 C 3.972 27.645,3.862 23.507,2.935 23.329 C 2.326 23.212,2.261 23.450,2.363 25.421 M395.806 25.548 C 395.806 27.504,396.756 29.107,396.993 27.550 C 397.432 24.661,397.229 23.260,396.370 23.260 C 395.934 23.260,395.806 23.782,395.806 25.548 M3.432 25.548 C 3.432 26.387,3.260 27.073,3.051 27.073 C 2.841 27.073,2.669 26.387,2.669 25.548 C 2.669 24.709,2.841 24.023,3.051 24.023 C 3.260 24.023,3.432 24.709,3.432 25.548 M396.456 26.406 C 396.365 26.878,396.291 26.492,396.291 25.548 C 396.291 24.604,396.365 24.218,396.456 24.690 C 396.547 25.162,396.547 25.934,396.456 26.406 M2.550 29.989 C 1.859 30.680,2.264 351.634,2.955 351.500 C 3.761 351.345,4.023 30.130,3.217 29.862 C 2.995 29.787,2.694 29.845,2.550 29.989 M395.806 190.658 C 395.806 333.439,395.870 351.573,396.378 351.573 C 396.694 351.573,396.952 351.232,396.954 350.810 C 396.957 350.391,396.959 278.322,396.959 190.658 C 396.959 102.993,396.957 30.925,396.954 30.505 C 396.952 30.084,396.694 29.743,396.378 29.743 C 395.870 29.743,395.806 47.876,395.806 190.658 M3.432 190.658 C 3.432 297.172,3.304 350.810,3.051 350.810 C 2.797 350.810,2.669 297.172,2.669 190.658 C 2.669 84.144,2.797 30.505,3.051 30.505 C 3.304 30.505,3.432 84.144,3.432 190.658 M396.573 190.850 C 396.572 278.896,396.485 351.020,396.379 351.126 C 396.273 351.232,396.187 279.107,396.187 190.848 C 396.187 102.590,396.274 30.465,396.381 30.572 C 396.487 30.678,396.574 102.804,396.573 190.850 M2.550 353.726 C 1.910 354.366,2.267 358.115,2.955 357.983 C 3.493 357.879,3.622 357.453,3.622 355.794 C 3.622 353.897,3.198 353.078,2.550 353.726 M396.056 353.737 C 395.524 354.269,395.783 358.055,396.352 358.055 C 397.006 358.055,397.318 357.167,397.259 355.480 C 397.215 354.245,396.535 353.259,396.056 353.737 M3.432 355.745 C 3.432 356.571,3.260 357.354,3.051 357.483 C 2.818 357.627,2.669 357.042,2.669 355.981 C 2.669 355.024,2.841 354.242,3.051 354.242 C 3.260 354.242,3.432 354.918,3.432 355.745 M396.456 356.625 C 396.365 357.097,396.291 356.711,396.291 355.767 C 396.291 354.824,396.365 354.438,396.456 354.909 C 396.547 355.381,396.547 356.153,396.456 356.625 M2.288 360.343 C 2.288 360.553,2.545 360.724,2.860 360.724 C 3.174 360.724,3.432 360.553,3.432 360.343 C 3.432 360.133,3.174 359.962,2.860 359.962 C 2.545 359.962,2.288 360.133,2.288 360.343 M395.806 360.343 C 395.806 360.553,396.063 360.724,396.378 360.724 C 396.692 360.724,396.949 360.553,396.949 360.343 C 396.949 360.133,396.692 359.962,396.378 359.962 C 396.063 359.962,395.806 360.133,395.806 360.343 M13.060 360.785 C 13.847 360.955,15.133 360.955,15.920 360.785 C 17.110 360.529,16.870 360.477,14.490 360.477 C 12.110 360.477,11.870 360.529,13.060 360.785 M19.412 360.903 L 20.711 361.501 20.463 368.337 C 20.312 372.526,20.356 375.260,20.578 375.397 C 20.822 375.548,365.166 375.744,378.551 375.601 C 378.915 375.597,379.028 373.932,379.028 368.560 C 379.028 362.272,379.099 361.481,379.695 361.111 C 380.305 360.732,380.297 360.706,379.600 360.811 C 378.873 360.920,378.832 361.258,378.733 368.070 L 378.630 375.214 377.017 375.216 C 252.666 375.303,21.216 375.175,20.963 375.018 C 20.757 374.891,20.697 372.081,20.819 368.239 C 21.042 361.192,20.984 360.909,19.253 360.545 C 18.138 360.311,18.141 360.319,19.412 360.903 M382.150 360.782 C 383.323 361.112,387.819 361.120,388.639 360.793 C 388.997 360.650,387.485 360.534,385.279 360.534 C 383.073 360.534,381.665 360.645,382.150 360.782 M399.237 363.032 C 399.237 364.001,399.015 364.288,397.903 364.753 C 396.646 365.278,396.568 365.416,396.560 367.117 C 396.536 372.200,391.728 377.231,386.364 377.784 C 384.508 377.976,384.189 378.140,383.539 379.242 L 382.806 380.484 373.255 380.519 C 367.866 380.539,363.428 380.716,363.072 380.924 C 362.655 381.167,366.161 381.296,373.413 381.304 L 384.385 381.316 384.614 380.172 C 384.786 379.312,385.053 379.028,385.691 379.028 C 386.626 379.028,388.481 378.480,390.334 377.655 C 390.995 377.361,391.694 377.121,391.888 377.121 C 392.081 377.121,392.913 376.438,393.737 375.602 C 394.560 374.767,395.448 374.080,395.710 374.077 C 395.972 374.073,396.154 373.942,396.114 373.785 C 395.964 373.191,396.643 371.020,396.980 371.020 C 397.173 371.020,397.331 370.514,397.331 369.895 C 397.331 369.246,397.597 368.621,397.960 368.418 C 398.362 368.193,398.514 367.778,398.381 367.269 C 398.153 366.399,398.962 365.467,399.602 365.862 C 399.860 366.022,400.000 365.364,400.000 363.988 C 400.000 362.822,399.828 361.868,399.619 361.868 C 399.409 361.868,399.237 362.392,399.237 363.032 M17.553 367.103 C 17.219 375.528,17.264 375.930,18.487 375.461 C 19.360 375.126,19.183 362.890,18.303 362.723 C 17.829 362.633,17.701 363.382,17.553 367.103 M380.420 365.205 C 379.790 371.879,380.261 376.842,381.367 375.168 C 381.877 374.395,381.613 362.632,381.085 362.632 C 380.842 362.631,380.560 363.726,380.420 365.205 M4.965 365.666 C 2.887 369.549,10.663 377.041,15.031 375.364 C 15.811 375.065,15.835 372.980,15.062 372.683 C 14.315 372.397,14.333 371.625,15.101 370.987 C 15.713 370.480,15.765 366.067,15.167 365.469 C 14.958 365.260,10.417 365.103,8.770 365.249 C 8.456 365.277,7.570 365.197,6.802 365.071 C 5.631 364.880,5.335 364.976,4.965 365.666 M384.699 365.180 C 383.422 365.506,383.173 370.763,384.403 371.421 L 385.203 371.849 384.382 372.425 C 382.966 373.416,383.436 375.371,385.129 375.532 C 389.763 375.972,396.125 369.129,394.282 365.685 C 393.963 365.090,386.578 364.700,384.699 365.180 M0.936 366.035 C 1.081 366.270,1.285 367.273,1.389 368.264 C 1.496 369.293,2.003 370.719,2.568 371.585 C 3.113 372.419,3.559 373.320,3.559 373.586 C 3.559 373.853,3.682 374.071,3.832 374.071 C 3.983 374.071,4.205 374.449,4.326 374.912 C 4.447 375.375,4.665 375.634,4.810 375.489 C 4.955 375.343,5.590 375.764,6.221 376.424 C 6.852 377.084,7.898 377.740,8.546 377.881 C 9.193 378.023,9.681 378.339,9.628 378.583 C 9.572 378.844,10.007 379.028,10.683 379.028 C 12.749 379.028,14.930 379.900,14.735 380.648 C 14.631 381.050,14.775 381.316,15.098 381.316 C 15.467 381.316,15.634 380.852,15.634 379.831 C 15.634 378.149,15.274 377.896,12.838 377.861 C 10.303 377.825,5.897 375.214,4.292 372.795 C 2.684 370.371,2.315 369.453,2.202 367.591 C 2.121 366.270,1.935 365.848,1.385 365.744 C 0.934 365.658,0.769 365.765,0.936 366.035 M389.704 366.063 C 389.704 366.273,389.093 366.444,388.345 366.444 C 386.124 366.444,385.510 366.984,385.510 368.936 C 385.510 370.195,385.361 370.639,384.938 370.639 C 384.343 370.639,384.063 366.493,384.620 365.936 C 385.031 365.525,389.704 365.642,389.704 366.063 M393.823 366.511 C 394.516 370.168,388.137 376.198,384.892 374.953 C 382.861 374.174,384.996 372.548,388.059 372.539 C 391.116 372.531,391.300 372.351,391.214 369.455 C 391.123 366.335,391.416 365.606,392.705 365.756 C 393.272 365.822,393.754 366.148,393.823 366.511 M7.930 369.461 C 8.061 372.733,7.626 372.751,6.120 369.535 C 5.067 367.286,5.269 366.342,6.766 366.514 C 7.796 366.632,7.819 366.692,7.930 369.461 M15.021 367.047 C 15.579 368.500,14.979 371.020,14.076 371.020 C 13.723 371.020,13.673 367.437,14.015 366.730 C 14.250 366.246,14.778 366.413,15.021 367.047 M13.134 367.554 C 13.252 367.745,13.150 368.759,12.908 369.808 C 12.459 371.753,9.974 372.834,8.755 371.615 C 8.342 371.202,8.252 367.852,8.643 367.461 C 9.027 367.077,12.889 367.156,13.134 367.554 M389.864 367.438 C 390.607 367.723,390.705 370.737,389.990 371.305 C 388.403 372.565,386.705 372.244,386.263 370.601 C 385.460 367.622,386.944 366.318,389.864 367.438 M14.439 372.961 C 16.317 374.711,13.177 375.540,10.276 374.060 C 8.377 373.092,8.647 372.644,11.249 372.446 C 12.297 372.367,13.252 372.270,13.369 372.233 C 13.487 372.195,13.968 372.522,14.439 372.961 M17.541 377.693 C 17.541 378.011,17.879 378.265,18.303 378.265 C 18.727 378.265,19.066 378.011,19.066 377.693 C 19.066 377.375,18.727 377.121,18.303 377.121 C 17.879 377.121,17.541 377.375,17.541 377.693 M20.591 377.661 C 20.591 377.993,20.863 378.265,21.195 378.265 C 21.868 378.265,21.751 377.444,21.044 377.208 C 20.795 377.125,20.591 377.329,20.591 377.661 M22.965 377.799 C 23.050 378.194,54.856 378.316,189.895 378.438 C 281.649 378.521,357.235 378.614,357.865 378.643 C 364.425 378.953,375.918 378.605,376.351 378.083 C 376.616 377.764,376.683 377.504,376.500 377.506 C 376.317 377.509,296.673 377.466,199.514 377.411 C 56.249 377.331,22.880 377.404,22.965 377.799 M377.757 377.375 C 377.273 377.859,377.505 378.265,378.265 378.265 C 378.689 378.265,379.028 378.011,379.028 377.693 C 379.028 377.113,378.221 376.911,377.757 377.375 M380.172 377.693 C 380.172 378.086,380.422 378.273,380.839 378.192 C 381.643 378.038,381.592 377.361,380.764 377.188 C 380.418 377.117,380.172 377.327,380.172 377.693 M20.212 380.475 C 18.430 380.536,16.809 380.751,16.608 380.951 C 16.377 381.183,20.115 381.316,26.870 381.316 C 32.714 381.316,37.376 381.195,37.229 381.048 C 36.907 380.727,24.759 380.317,20.212 380.475 M343.311 380.553 C 333.159 380.867,335.784 381.316,347.772 381.316 C 355.672 381.316,358.851 381.196,358.566 380.911 C 358.085 380.430,351.934 380.286,343.311 380.553 " stroke="none" fill="#30251c" fill-rule="evenodd"></path><path id="path5" d="M144.995 0.263 C 145.362 0.359,145.963 0.359,146.330 0.263 C 146.697 0.167,146.397 0.088,145.663 0.088 C 144.929 0.088,144.628 0.167,144.995 0.263 M216.492 0.269 C 216.964 0.360,217.736 0.360,218.208 0.269 C 218.680 0.178,218.294 0.104,217.350 0.104 C 216.406 0.104,216.020 0.178,216.492 0.269 M35.272 1.398 C 34.852 1.481,33.136 1.692,31.459 1.868 L 28.408 2.186 31.077 2.241 C 32.545 2.272,34.433 2.374,35.272 2.470 C 36.551 2.615,36.612 2.595,35.653 2.341 L 34.509 2.040 36.225 1.633 C 37.810 1.257,36.999 1.057,35.272 1.398 M337.464 1.598 C 338.784 2.016,338.788 2.024,337.846 2.340 C 337.123 2.581,337.261 2.615,338.418 2.477 C 339.256 2.378,341.316 2.270,342.993 2.237 L 346.044 2.178 342.993 1.910 C 341.316 1.762,339.085 1.537,338.036 1.408 C 336.240 1.189,336.207 1.200,337.464 1.598 M364.347 1.893 C 365.058 2.211,372.862 2.455,372.514 2.148 C 372.426 2.071,370.381 1.905,367.969 1.780 C 365.268 1.639,363.877 1.682,364.347 1.893 M379.790 1.871 C 378.225 2.082,378.145 2.142,378.874 2.559 C 379.430 2.876,379.795 2.894,380.072 2.616 C 380.643 2.045,382.157 2.930,382.002 3.744 C 381.906 4.250,381.366 4.409,379.442 4.500 L 377.005 4.615 378.302 5.276 C 379.220 5.744,379.786 5.829,380.236 5.565 C 381.489 4.834,382.078 5.935,382.078 9.008 C 382.078 10.555,382.237 11.821,382.432 11.821 C 382.626 11.821,382.853 12.121,382.935 12.488 C 383.018 12.855,383.020 12.126,382.941 10.867 C 382.693 6.948,382.717 6.519,383.214 5.921 C 383.482 5.597,384.311 5.336,385.080 5.333 C 386.144 5.328,386.331 5.236,385.891 4.936 C 385.481 4.655,385.858 4.603,387.226 4.754 C 388.568 4.901,388.907 4.857,388.370 4.606 C 387.950 4.409,386.749 4.233,385.701 4.215 C 383.508 4.178,383.186 4.010,382.555 2.574 C 382.302 1.997,381.962 1.551,381.800 1.583 C 381.639 1.614,380.734 1.744,379.790 1.871 M17.922 2.177 C 18.236 2.293,18.779 2.635,19.127 2.937 C 19.683 3.421,19.805 3.405,20.139 2.810 C 20.457 2.241,20.671 2.202,21.470 2.566 C 22.432 3.004,23.028 2.838,22.655 2.235 C 22.544 2.054,21.304 1.920,19.901 1.937 C 18.498 1.953,17.607 2.061,17.922 2.177 M373.340 2.046 C 373.708 2.371,377.121 2.547,377.121 2.241 C 377.121 2.057,376.235 1.907,375.151 1.907 C 374.067 1.907,373.252 1.970,373.340 2.046 M360.439 2.566 C 361.225 2.648,362.512 2.648,363.298 2.566 C 364.085 2.483,363.441 2.416,361.868 2.416 C 360.296 2.416,359.652 2.483,360.439 2.566 M13.346 4.166 C 10.259 4.531,4.576 8.390,4.576 10.121 C 4.576 10.353,4.133 10.960,3.592 11.468 C 2.595 12.405,2.492 13.632,3.223 15.847 C 3.531 16.779,2.106 17.621,0.801 17.280 C -0.545 16.928,-0.330 19.924,1.108 21.562 C 1.717 22.256,2.310 22.730,2.424 22.615 C 2.539 22.501,2.370 22.144,2.049 21.823 C 1.710 21.484,1.556 20.905,1.681 20.439 C 1.799 19.998,1.899 19.337,1.901 18.970 C 1.904 18.579,2.196 18.303,2.606 18.303 C 3.604 18.303,3.877 18.710,3.352 19.412 C 2.971 19.920,2.984 19.942,3.431 19.542 C 4.169 18.884,4.957 18.945,4.957 19.660 C 4.957 19.987,5.113 20.159,5.303 20.041 C 5.493 19.924,5.558 19.485,5.449 19.065 C 5.280 18.421,5.437 18.303,6.460 18.303 C 7.146 18.303,7.572 18.143,7.443 17.933 C 7.217 17.568,7.860 17.344,10.105 17.005 C 10.734 16.910,9.771 16.913,7.965 17.011 L 4.681 17.190 4.212 16.058 C 2.218 11.243,11.187 3.087,15.424 5.863 C 16.726 6.716,16.843 6.660,16.707 5.246 C 16.572 3.857,16.407 3.804,13.346 4.166 M18.970 4.457 C 18.123 4.679,18.126 5.060,18.984 5.836 C 19.717 6.499,20.917 5.411,20.391 4.560 C 20.155 4.178,20.063 4.172,18.970 4.457 M15.634 4.872 C 15.634 5.035,14.905 5.163,14.013 5.158 C 13.122 5.152,11.878 5.288,11.249 5.459 C 10.165 5.754,10.145 5.739,10.867 5.185 C 11.654 4.581,15.634 4.320,15.634 4.872 M28.313 4.839 C 28.680 4.935,29.280 4.935,29.647 4.839 C 30.014 4.743,29.714 4.664,28.980 4.664 C 28.246 4.664,27.946 4.743,28.313 4.839 M391.516 6.677 C 392.963 7.922,393.794 9.222,392.717 8.556 C 392.422 8.374,392.426 8.537,392.730 9.106 C 393.227 10.033,393.602 10.196,393.274 9.342 C 392.883 8.324,393.508 8.736,394.284 10.010 C 395.126 11.390,395.287 12.398,394.597 11.971 C 394.283 11.778,394.238 11.913,394.444 12.426 C 395.862 15.959,394.201 18.290,391.300 16.838 C 390.947 16.661,390.229 16.630,389.704 16.768 C 388.941 16.970,389.165 17.076,390.833 17.304 C 392.323 17.507,392.756 17.688,392.358 17.940 C 391.939 18.204,392.061 18.293,392.850 18.297 C 393.526 18.301,393.899 18.507,393.899 18.875 C 393.899 19.193,394.238 19.447,394.662 19.447 C 395.081 19.447,395.424 19.613,395.424 19.816 C 395.424 20.020,395.684 20.086,396.001 19.964 C 396.734 19.683,397.809 20.552,397.553 21.220 C 397.446 21.498,397.551 21.685,397.787 21.635 C 398.023 21.585,398.343 21.973,398.498 22.498 C 398.942 23.998,398.855 22.549,398.339 19.828 C 397.908 17.557,397.782 17.340,396.837 17.229 C 395.841 17.113,395.805 17.028,395.802 14.751 C 395.796 11.154,393.475 7.033,390.686 5.669 C 390.251 5.457,390.624 5.910,391.516 6.677 M15.089 9.108 C 14.974 9.294,15.135 9.659,15.447 9.918 C 15.760 10.177,16.015 10.979,16.015 11.699 C 16.015 12.476,16.171 12.914,16.397 12.774 C 16.816 12.515,16.912 10.327,16.546 9.373 C 16.296 8.720,15.426 8.562,15.089 9.108 M9.021 10.172 C 8.883 10.310,8.773 10.780,8.776 11.217 C 8.781 11.870,8.848 11.909,9.152 11.439 C 9.433 11.003,9.523 11.152,9.527 12.066 C 9.533 13.326,10.044 13.727,11.639 13.727 C 12.807 13.727,13.071 13.255,12.406 12.354 C 11.978 11.774,11.776 11.725,11.389 12.107 C 11.123 12.369,10.650 12.583,10.338 12.583 C 9.940 12.583,10.044 12.329,10.688 11.728 C 11.560 10.916,11.568 10.866,10.855 10.734 C 10.443 10.657,9.917 10.443,9.688 10.258 C 9.459 10.072,9.159 10.034,9.021 10.172 M387.798 10.557 C 387.798 10.701,388.171 11.215,388.627 11.701 L 389.456 12.583 388.646 12.583 C 388.200 12.583,387.669 12.285,387.464 11.919 C 387.016 11.118,386.706 11.355,386.567 12.607 C 386.476 13.427,386.631 13.551,387.880 13.654 C 389.490 13.788,390.158 12.618,389.342 11.094 C 388.948 10.357,387.798 9.957,387.798 10.557 M9.628 18.576 C 10.205 18.664,11.149 18.664,11.725 18.576 C 12.302 18.489,11.830 18.417,10.677 18.417 C 9.523 18.417,9.051 18.489,9.628 18.576 M389.232 18.573 C 389.707 18.664,390.393 18.661,390.758 18.565 C 391.122 18.470,390.734 18.395,389.895 18.399 C 389.056 18.404,388.758 18.482,389.232 18.573 M397.331 18.662 C 397.331 18.859,397.151 19.132,396.931 19.268 C 396.372 19.614,395.325 19.153,395.613 18.687 C 395.913 18.202,397.331 18.181,397.331 18.662 M399.326 36.225 C 399.326 36.959,399.404 37.259,399.500 36.892 C 399.596 36.525,399.596 35.925,399.500 35.558 C 399.404 35.191,399.326 35.491,399.326 36.225 M3.982 51.096 C 3.982 57.493,4.035 60.110,4.098 56.911 C 4.162 53.713,4.162 48.480,4.098 45.281 C 4.035 42.083,3.982 44.700,3.982 51.096 M3.917 67.874 C 3.917 68.818,3.991 69.204,4.082 68.732 C 4.173 68.260,4.173 67.488,4.082 67.016 C 3.991 66.544,3.917 66.930,3.917 67.874 M3.984 83.317 C 3.984 90.448,4.036 93.311,4.099 89.680 C 4.161 86.049,4.161 80.215,4.098 76.715 C 4.036 73.216,3.984 76.187,3.984 83.317 M3.954 100.667 C 3.954 102.869,4.017 103.770,4.094 102.669 C 4.171 101.568,4.171 99.766,4.094 98.665 C 4.017 97.564,3.954 98.465,3.954 100.667 M4.000 190.658 C 4.000 237.531,4.045 256.706,4.099 233.270 C 4.153 209.833,4.153 171.482,4.099 148.046 C 4.045 124.609,4.000 143.785,4.000 190.658 M3.989 293.804 C 3.989 303.241,4.038 307.047,4.099 302.262 C 4.159 297.476,4.159 289.755,4.099 285.103 C 4.038 280.451,3.989 284.366,3.989 293.804 M3.917 313.441 C 3.917 314.385,3.991 314.771,4.082 314.299 C 4.173 313.827,4.173 313.055,4.082 312.583 C 3.991 312.112,3.917 312.498,3.917 313.441 M3.982 330.219 C 3.982 336.616,4.035 339.233,4.098 336.034 C 4.162 332.836,4.162 327.602,4.098 324.404 C 4.035 321.206,3.982 323.823,3.982 330.219 M399.326 345.091 C 399.326 345.825,399.404 346.125,399.500 345.758 C 399.596 345.391,399.596 344.790,399.500 344.423 C 399.404 344.056,399.326 344.357,399.326 345.091 M1.049 359.785 C -0.366 361.451,-0.490 364.267,0.858 364.113 C 2.466 363.928,3.531 364.520,3.233 365.432 C 2.492 367.695,2.590 368.907,3.592 369.847 C 4.133 370.356,4.576 370.972,4.576 371.217 C 4.576 373.339,10.531 377.000,14.299 377.194 L 16.587 377.312 16.710 376.032 C 16.777 375.328,16.691 374.818,16.519 374.900 C 16.347 374.982,15.734 375.285,15.158 375.574 C 10.617 377.850,2.256 369.980,4.208 365.268 L 4.672 364.147 7.770 364.322 C 9.474 364.418,10.439 364.415,9.914 364.315 C 7.265 363.811,7.078 363.733,7.646 363.373 C 8.036 363.127,7.766 363.022,6.724 363.018 C 5.439 363.013,5.275 362.915,5.449 362.250 C 5.558 361.831,5.512 361.404,5.346 361.301 C 5.180 361.198,4.947 361.484,4.829 361.935 C 4.648 362.626,4.521 362.679,4.027 362.269 C 3.704 362.001,3.551 361.603,3.686 361.385 C 3.832 361.149,3.745 361.103,3.472 361.272 C 3.150 361.471,3.132 361.697,3.410 362.033 C 3.879 362.598,3.560 363.012,2.656 363.012 C 1.727 363.012,1.337 360.421,2.133 359.541 C 2.455 359.185,2.579 358.816,2.408 358.722 C 2.237 358.628,1.625 359.106,1.049 359.785 M398.358 359.222 C 398.222 359.743,397.976 359.934,397.679 359.751 C 397.375 359.563,397.311 359.622,397.495 359.920 C 397.835 360.469,397.071 361.487,396.319 361.487 C 395.435 361.487,395.224 360.289,396.007 359.716 C 396.396 359.432,396.531 359.199,396.306 359.199 C 395.590 359.199,394.972 360.281,395.228 361.088 C 395.423 361.703,395.308 361.868,394.687 361.868 C 394.241 361.868,393.899 362.116,393.899 362.440 C 393.899 362.826,393.495 363.021,392.660 363.039 C 391.683 363.060,391.577 363.127,392.163 363.356 C 393.025 363.694,391.900 364.131,390.086 364.163 C 389.317 364.176,389.249 364.248,389.737 364.533 C 390.119 364.756,390.854 364.729,391.735 364.458 C 394.712 363.545,395.717 365.132,394.474 368.780 C 393.970 370.258,393.970 370.364,394.474 369.708 C 395.138 368.844,395.241 369.556,394.621 370.715 C 394.349 371.223,394.105 371.353,393.936 371.079 C 393.774 370.818,393.401 371.115,392.968 371.847 C 392.581 372.503,392.460 372.918,392.700 372.770 C 393.539 372.251,393.127 373.174,392.088 374.140 C 390.379 375.729,389.243 376.286,387.226 376.522 C 385.895 376.678,385.550 376.638,386.082 376.388 C 386.686 376.105,386.475 376.025,385.071 376.004 C 383.283 375.977,381.961 374.424,382.702 373.223 C 382.831 373.015,382.972 371.791,383.015 370.503 C 383.058 369.214,383.024 368.460,382.939 368.827 C 382.854 369.194,382.626 369.495,382.432 369.495 C 382.237 369.495,382.078 370.761,382.078 372.308 C 382.078 375.360,381.476 376.506,380.272 375.746 C 379.798 375.447,376.745 376.423,376.739 376.875 C 376.739 376.905,377.854 376.873,379.217 376.803 C 381.215 376.700,381.741 376.793,381.930 377.284 C 382.327 378.318,381.361 379.071,379.972 378.810 C 379.291 378.682,378.632 378.743,378.507 378.945 C 378.190 379.457,381.776 379.813,382.364 379.328 C 382.626 379.111,382.841 378.612,382.841 378.218 C 382.841 377.825,382.969 377.497,383.127 377.491 C 391.057 377.164,395.806 373.113,395.806 366.673 C 395.806 364.279,395.835 364.203,396.834 364.086 C 397.785 363.975,397.899 363.766,398.349 361.318 C 398.810 358.806,398.816 357.470,398.358 359.222 M397.236 362.536 C 397.328 362.812,397.070 363.012,396.622 363.012 C 395.789 363.012,395.287 362.514,395.702 362.099 C 396.086 361.715,397.054 361.991,397.236 362.536 M12.011 362.657 C 11.390 362.903,11.479 362.964,12.488 362.986 C 13.777 363.013,14.069 362.841,13.251 362.534 C 12.989 362.436,12.431 362.491,12.011 362.657 M10.010 367.841 C 9.747 367.946,9.533 368.544,9.533 369.168 C 9.533 369.827,9.373 370.204,9.152 370.067 C 8.942 369.937,8.770 370.070,8.770 370.362 C 8.770 371.122,9.204 371.450,9.688 371.058 C 9.917 370.872,10.448 370.655,10.867 370.575 C 11.609 370.433,11.606 370.407,10.772 369.686 C 9.582 368.656,9.695 368.119,10.931 368.929 C 11.901 369.565,11.971 369.564,12.444 368.917 C 13.270 367.787,11.777 367.127,10.010 367.841 M386.504 367.903 C 385.868 368.933,386.848 370.118,387.662 369.304 C 388.662 368.304,389.604 368.568,388.684 369.590 C 387.379 371.040,387.265 371.433,388.255 371.068 C 389.395 370.649,390.017 368.997,389.342 368.183 C 388.824 367.559,386.838 367.363,386.504 367.903 M16.015 369.538 C 16.015 370.215,15.735 371.080,15.391 371.459 C 14.813 372.098,14.815 372.166,15.430 372.402 C 16.574 372.841,17.482 369.212,16.397 368.541 C 16.172 368.403,16.015 368.813,16.015 369.538 M19.247 375.229 C 19.094 375.478,19.205 375.845,19.494 376.045 C 19.866 376.303,19.769 376.338,19.161 376.167 C 18.689 376.034,18.303 376.089,18.303 376.288 C 18.303 376.793,19.932 377.170,20.343 376.759 C 20.537 376.565,20.436 376.076,20.103 375.600 C 19.701 375.026,19.442 374.914,19.247 375.229 M14.013 376.158 C 14.905 376.152,15.634 376.281,15.634 376.444 C 15.634 376.997,11.612 376.760,10.845 376.162 C 10.150 375.619,10.174 375.602,11.249 375.876 C 11.878 376.036,13.122 376.163,14.013 376.158 M16.397 378.834 C 16.397 379.544,22.281 379.687,22.713 378.987 C 22.896 378.692,22.601 378.647,21.735 378.837 C 20.935 379.013,20.399 378.953,20.223 378.668 C 20.018 378.335,19.692 378.344,18.908 378.701 C 18.092 379.072,17.705 379.076,17.131 378.717 C 16.528 378.341,16.397 378.361,16.397 378.834 M362.345 378.909 C 362.712 379.005,363.313 379.005,363.680 378.909 C 364.047 378.813,363.746 378.735,363.012 378.735 C 362.278 378.735,361.978 378.813,362.345 378.909 M374.833 379.028 L 373.117 379.294 375.119 379.352 C 376.238 379.384,377.121 379.241,377.121 379.028 C 377.121 378.818,376.992 378.672,376.835 378.704 C 376.678 378.735,375.777 378.881,374.833 379.028 M30.887 379.417 C 35.809 380.057,38.113 380.176,36.606 379.713 C 35.872 379.487,33.727 379.256,31.840 379.199 C 28.469 379.097,28.452 379.100,30.887 379.417 M337.464 379.643 L 336.130 380.167 337.846 379.955 C 338.789 379.839,341.020 379.606,342.803 379.438 L 346.044 379.132 342.421 379.125 C 340.234 379.121,338.270 379.326,337.464 379.643 M364.325 379.445 C 364.073 379.853,371.704 379.614,372.118 379.201 C 372.213 379.106,370.557 379.028,368.437 379.028 C 366.058 379.028,364.484 379.187,364.325 379.445 M215.920 381.207 C 216.497 381.295,217.440 381.295,218.017 381.207 C 218.594 381.120,218.122 381.048,216.969 381.048 C 215.815 381.048,215.343 381.120,215.920 381.207 " stroke="none" fill="#7c5449" fill-rule="evenodd"></path></g></svg>